<?xml version="1.0" encoding="UTF-8"?>
<!--Generator: Apple Native CoreSVG 232.5-->
<!DOCTYPE svg
PUBLIC "-//W3C//DTD SVG 1.1//EN"
       "http://www.w3.org/Graphics/SVG/1.1/DTD/svg11.dtd">
<svg version="1.1" xmlns="http://www.w3.org/2000/svg" xmlns:xlink="http://www.w3.org/1999/xlink" width="34.4303" height="34.5035">
 <g>
  <rect height="34.5035" opacity="0" width="34.4303" x="0" y="0"/>
  <path d="M34.4303 9.23848L34.4303 21.2101C34.4303 25.7919 31.9225 28.3494 27.2745 28.3494L26.5376 28.3494L26.5376 32.9049C26.5376 33.8668 26.03 34.5035 25.1479 34.5035C24.5278 34.5035 24.0932 34.1817 23.3638 33.5055L17.7114 28.3494L7.15581 28.3494C2.50779 28.3494-4.44089e-16 25.7852-4.44089e-16 21.2101L-4.44089e-16 9.23848C-4.44089e-16 4.66345 2.50779 2.08267 7.15581 2.08267L27.2745 2.08267C31.9225 2.08267 34.4303 4.6567 34.4303 9.23848ZM8.9781 14.9642C8.9781 19.4815 12.6999 23.1984 17.2123 23.1984C21.7295 23.1984 25.4518 19.4815 25.4518 14.9642C25.4518 10.447 21.7241 6.73004 17.2069 6.73004C12.6945 6.73004 8.9781 10.447 8.9781 14.9642ZM23.8883 14.9642C23.8883 18.6161 20.869 21.6403 17.2123 21.6403C13.5604 21.6403 10.5416 18.6161 10.5416 14.9642C10.5416 13.5259 11.0091 12.185 11.8039 11.0917C11.8297 11.8158 12.3202 12.5369 13.2983 13.3818L14.4189 14.3529C14.7841 14.6746 14.9934 14.8272 14.9934 15.0265C14.9934 15.375 14.5948 15.5847 14.5948 16.0134C14.5948 16.4075 14.7801 16.7325 15.1842 17.0315C16.4636 17.9886 16.7352 18.1065 16.7352 18.3882C16.7452 18.8937 16.4402 19.2789 16.4402 19.7534C16.4402 20.1769 16.9939 20.6508 17.4818 20.6508C18.4701 20.6508 21.1888 17.0973 21.1888 15.7642C21.1888 15.0152 19.5151 13.5474 18.6371 13.5474C18.2488 13.5474 17.6478 14.0921 17.2027 14.0921C16.7666 14.0921 15.7998 13.2314 15.7998 12.8491C15.7998 12.6382 15.9661 12.5321 16.173 12.5321C16.5551 12.5321 17.1534 13.1358 17.7784 13.1358C18.2754 13.1358 18.5132 12.8179 18.5132 12.3617C18.5132 12.0622 18.3617 11.7701 18.1689 11.4336C18.9206 11.0711 20.3477 10.3944 20.9532 9.45662C22.7184 10.6646 23.8883 12.693 23.8883 14.9642Z" fill="#ffffff"/>
 </g>
</svg>
